<mxfile host="Electron" modified="2023-10-13T05:38:38.463Z" agent="Mozilla/5.0 (Windows NT 10.0; Win64; x64) AppleWebKit/537.36 (KHTML, like Gecko) draw.io/21.7.5 Chrome/114.0.5735.289 Electron/25.8.1 Safari/537.36" etag="vrAAVbHJorQ5m5DBhGOS" version="21.7.5" type="device">
  <diagram id="C5RBs43oDa-KdzZeNtuy" name="Page-1">
    <mxGraphModel dx="1120" dy="532" grid="1" gridSize="10" guides="1" tooltips="1" connect="1" arrows="1" fold="1" page="1" pageScale="1" pageWidth="827" pageHeight="1169" background="#E8E8E8" backgroundImage="{&quot;src&quot;:&quot;data:image/png;base64,iVBORw0KGgoAAAANSUhEUgAAASwAAACFCAYAAADhGcXnAAAABmJLR0QA/wD/AP+gvaeTAAAACXBIWXMAABcSAAAXEgFnn9JSAAAUn0lEQVR42u2deXhc5XWHX0nYsizJyDZe2BwgDhMgkxAgQNlilZCEmoSUpSUkBUIJYQvQFAqYpXmAJKUESlqTsiQtrYFgUtpQMIESMiw2DgYHzGCbwSaWbfACtmW8ydpm8sc5t3PnasaWLGlmJP3e59Fj6c69d+58vvc35zvfWUAIIYQQQgghhBBCCCGEEH1ChYZg5yRi8d2AccB4oApYD6wBWhtTSQ2QEBKsshCqaqAR+BpwvAtWJbARmA88AcwCNki4hJBglVKsxgJXARcDuxfYrc1F60ZgsURLiP5lNw1BXrEaA/wIOA8YtoNdhwOnAROBc4F3NXpC9B+VGoIuYlUJfMMFaFg3rdRjgGmJWLxOIyiEBKuY7Ad8162nnkytzwSO0PAJIcEqJgcDk3bhuDrgpEQsLr+gEBKsovFZoHoXjqsAjgRqNIRCSLCKxcReHDuK7vm9hBASrD6huRfHbgc6NIRCSLCKRbIXopMEWjSEQkiwisUi4INdOK4FeKoxlUxrCIWQYBWLt4EHgc4eHJMBXgLmafiEkGAVjcZUsh34KfAi0F1r6V3g74F1GkEhJFjFZjnwHeApoHUH+6WBN4CLgHnKJRSif1GQYwESsTjAaCyf8HTgQCxsoQLzVy0DEsB0YFljKpnRqAkhwSq1cFViUez7A/tiCeNrfBq4oTGV7NQoCSGEEEIIITQlHOhTv2FAHKgNbU5jMVnvAS1yqgshwSoXwdoDK3f8qYhgNQNvAo8Dc4GUhz4IIYqMKo7mMgIYGdlWhznbv4w522ckYvH7gOWKaheiuCgOq/tUAXsDV2N13E/zJhVCCAlWWQvXIcB9wDWJWLxeQyKEBKvcGQ1cB1yfiMVrNRxCSLDKnRHA5cAFvsoohJBglTU1wDTgWE/nEUJIsMqaccA1Pk0UQkiwypoK4ATgGFlZQkiwBgIjgW+yax13hBASrKJzAnCAhkEICdZAoAGYoGEQQoI1EKgG9tEwCNE/KJewb6kC9vdE6sHMpsZUsk3/3UKCNfC5BDhjEH++NuBKYI7+q4UEa+Azkd61uy8lGax79Ub/dxRQDwwP7bMdq2AhhARLlIwtwKPAI8BKYBsWCPtJ4DLgaN0vQoIlyoH1WNmcRxtTya2h7SsSsfgCrEnsjcD5GipRSrRKKFqwJrAPRcQKgMZUksZUchVwA/AbDZeQYIlSkgRmdmPVbz1wG+puLSRYooQ86WK0Q7wBx2v+I4QESxSddmBhD7pWb8M6CAkhwRJlfw9UoE5LQoIlSsQw4IhELN7d+6AOJXcLCZYoIX9GNwJdvc7X54HDNWRCgiVKRQy4OBGLj9iJWO2FxWqN0pAJCZYoFcOBK4CrE7H46EQsXhERq0pgMnA3cIyGS5QSRboLsHzB64ETgV8kYvFXsFSdCcDJwGluiVUCHRouIcESpaYa81EdiyU/t7qQ1aOVQSHBGpS0AfcDy3pwzL7Ad7Aehz2lA/h3IFXEz9hR5PcTQoLVjw/zzMZU8qXuHpCIxY8EzuuFYD3WmEo+o6EXQwE53YUQEiwhhJBgCSGGLPJhiZ0ya3KsAqgFJgH7A3tjFR4en7o0lRPmkIjF48BfAe8D9zamkts1gkKCJfpbpMCCSg8D/hxLyTkIGOPbnwNm0TUu6xNYk4rXgQewGvBCSLBEv4lVJXAEcBGWazgexWIJCZYoQ7GqAy4GLvUpYF8LVQXWnUcICZbo1RRwHHALcA5Q0w9vU4HFnC0E5nXzmErgi8ApQDNwp/9bTgzHfHwbXYwrgb/EsgdmAJ26w/oGrRKKgDHAj7HOODX9eL9NAQ7swTH7YT6xBcAbWJXUcuN4H7vqkDDHsBZpesZkYYk+tq5GYG28zsKK+pUTe7nV8hBWorkc2d2FNRCnTuAf/Pd23WGysETfiVUwffkWuR2ei8Ewt+YqgQafkoYFcySWfD3MRaEmMr0chYVZTASq8tzbFb59hP8+wr+kq7GFhNrQ/iOw6hS1Ba61xq3Q6tD5q9yKmuzXcgTm9wuurzLP1HEf4GN53meEn2+4X1uDnk9ZWKIrk4C/c0EoNl8GvoQlix/pD/l64F+BxVidri+6KNwNzAHu8vv2ND+2xR/2FcC9wCp/6C8HmoCjXBxux8IztgKHuDi2A/dhoRcX+BiksYTy59yyqwFOB07w69sOzHaL6iHgDKARi027AOvdOMO31wL3+Gc9GPi2C1u7i/B/Ac/6ea8FFvm5xvhnnOPX0qzbVIIl62pyrAr4Jj3zKfUle2JBpo8D3wc2AecCN2OO/58BS4DLgGlYT8S0C91ZfsxirNb8JX7cVVjVjJP9wb8VmA+sxmLETgJucqE4DqsDlnbxeRbzR13jYvcu8BfAV/08TZhv6loX0UeAH2HVKy4GvgtsdqEb79YhLma3YHFrv8Ri144CrvPPlMTi3c4EpgP/48ff7Of7GVpZ1ZRQMAE4u8RfXKuxztOLsej4+92q2Q/4EFjrVs0Kf7jrXczuwoJTt/v2f/Hp1qdDU7L/8Ie/CavvVQk875bNh8ATbr0sAmb6tsf9mj7n1tApmEP9dd/3d26VpUP+qk4XlPbQ9jB/4sc+6ALUArwAPOyfZTe3uJ4Dfg6sAd4EfurCO0K3qgRLwGfdn1JK3vMHNGCzT9sKTVEbgNHA0sj2ZuDVkA+pDfh9REA6XSiCLtcd/n5LyIYedLqg1LtlBPBW5L0W0LP+jIcDL4XeFxe4OT7+o1xQn4zss8Z9ZsN1q0qwNB2EqZhju5R07OJ0J98x7RFrMbpP2sWwu1T7MdH0ozYXmJ64XtrybO8k65xPu1AKCZbIQ7CqNdDY4qIzIbK9DjgUWNmH7/WBi9a4yPZ96EZrtBBJn2JGVzLj/h6bdDtKsMSOqc/zIA4EmoFfYQ7ufciGK5zhry/sw/daC7wNfINsOEMt5hxvCO3X4s9SDeaLiqYzzcWc9Se6tVWJOe0vwHxnbbodu2+qiqFJKdrOZ3wq1R6aErVFpm4Z35YOTRlbIq/PxFYY/xFzxje4oNyE+X1GFphqdtLVKV5oW6ef435sNS9YDfykW0oLyPq93gCWA/+ErSze4Z8z8D0txRz3F/o0vBXzXf0a86kR+czhKawCTyVYokSk/aFe73//n0+XwhZGO3AbtrIH5vC+kdwyNVtcQPbFHONbXBQC/1Srn2Nx5P3/DVsJDPPz0PWEt63z398F/gZznE/EQhmS/vta32c1Fve1r1/DNuC/Q1PADJBwYZvsz91yPy7IPbwd+EPkOpqAH9Azv5sES4g+JCwiK+nqc0pjIQQBm+m6ShdYQU0hYYu+lq8RyII82+Z3Y9tmLBwiTFRcNkWmo6sKTGdfLSDk+a5jS4H9hyzyYQkhJFhCCCHBEkIMWeTDEsWiAlvyL/QlGawOZvrgfcZgPqX+XGGrxxYCtIonwRKDkD2x8IAG/7vG77/N/vdWrIZUUy/fZwS2gvjP5HfW99VzMw3LRXxZ/7USLDH4WI8l8wb1rs7AuvDc7n93kJtT2BsLa0/6N+WoAoujqtd/qwRLDE5ayQ1pOBpLr3lTQyMkWGKg35cHAntgPq1VWNxT2L81Bkt3CaaVi8lNSK50C24PzM+0CPNrBWkxq7HKDqPculuMNZEIqMWK7gXHN2FBpIV8bLXAp4CxmG+rCStMmAl9pqA6aiuW8jMSCzLdi9yKEWAVKRr8HEKCJcqUaqyo31eBdzCf1CSsiN1TLi4HYdHvVT7V3AuLIr/DH/oqrM7XJ1wQGvxcN2BpPre6eO2FpfZMdAG70aelozEf1SSsRM0YF7n7/BqijAeu9v3nYzmak7HKqb/xafDXsR6P6zD/XatPKe/Big5ejkW/B2J7HrYIcbduCQmWKF+OwsofX+pWSiVWAO9Wt4JWu/D8FqsS2uqC8kOslPEv3XI5DMvd+4ML1j1YueXH3QqqxxrFNvnv04FTsTLL3/JzXAh85NdwDFaJdCFWaDCgAkuObgjtX4WVVL7Kp7wHuABf7tbiMCyB+npgg1/jF7DUoYxfzxSs4qiImM1ClAsVWHLwLBeFoLLBa265TMEqNDRgFRtasLSWdVgidLDi2I4lGy/y6dkarDje0f56J1aN9F3/faNbQnG3fj6HJVh/5PunsdXAJFaeOcworNTy3aH9O7G678uAY7F69c9iRf/SLrLPuFi2Y5VIT3XLDj9mjV+/kIUlypTh7rvaz6dUYT7m07+JWA2pjZHXl7oABdOt1ZHXN5BNRt7m+4bZRLZLz3C65gqmfcp2SGR7UBl1RWR7OxZWcSDm35obeX2Lfw4wf9ZHLpQvucX2ICroJ8HaAR2oLlGpSfuDPCvPAz7aRWcfF5QqciuB7kZuWZkdBaBmKNyNOThnvnZf1SErKixMQS2sqLU42oVwq4twRei6asnWI9vq09uzXYh3JzcBXGhK2IVt5M+wF8WjHWthf6hPCZf7zxqse80hvn28C1eYYzEfUm/v6c3+fkFbr4AxmC/thcj+67EyM1+I7D8e88e94uJ7Yki0aoCvkFtP/1UXqiswx/5a3Q6ysHZEm99cX6H4he1ElqeAO7FVtRdcgE7CQgamY/WsZmM1qu5zwTgQawX2Y/J3remplfcwFpW/AStJMxJrNvsh1jgiet/MxBzyGzC/U71bS00+LezE6mPd4Nsa3Fp7PzJlfRL4HuaMV1svCVZhGlNJErH4HDfP6zQi/c5auvqRwHxH17mlcZJ/eWzBVtyCgnd3YuWFr3PLuAYrujcPW4Fb4sdELaFlLkj5Xg9W6zKYg/2HbrGd4dPPN/x9W/y5WUy2wekLmN/sQhfaKmyhIGjSOgFb1XzaLa+t/nNPSGAzvu9v6VlHHgnWEGaxf0MeqaEoiiX1dJ7tGf8/uIxsHfVwWeVg2vYTf72C7Mpbxn+PVijFLaNXfL98r8/21wMBedlFJ3hGtpNbtvk2sn6wdGT/oBR0sP9xmEP9RrKVTD+DrTAG1UTrsdCHn6CEaglWN/kQC/Y7FPWC62/au/F6+06mbi0FBC9fSeEOsg71nb0enu617cCFQDf3nwt8DWsYOxeLAzsNK7ccrBTu7+K7ULdGYeR0z50WZrDGAHM1GqIPWYX53F7DFg5GYa3rZ4SstHVY/faPNFyysHrqW7nFb6w9NByij1iHBbvuSNS0Si0Lq8dWFsCLWCrINo2IEBKschetdizZ9h4UTNrXxOlZ1+Se3sP1WHJ02AdZoWdDgjXYRWurTw3vJ7dsiejd/XY5lhPYF4zC4pbGhrZNAR4APu5/TwIuIVs4sDsMAy4mN7BTSLDKXrQ2YmVGfkB2OVrsOhVu+fSV77QOq8AQjpt7Efg22VzAiVjCck8F60tY/JSQYA0o0dqExdx8HYvVUUJq/4lZxQ5eizawGO7Tv9383zrf7yOsqkIrlq9X5/vsTjauq6rAewWCuru/X13ovNH99OyUAK0Sdk+02hKx+HNYmsaJ/g1+MJa8WtXL0+8sUXcwc4SP4ztYSlQtFq0+y4WnAqsqeqpbO61Ye/vZvu0cP/42LGr++y44p2PVDr6HBW0ehJV/+TXwn779f8mNeToIq3m1DatV9RksReYtP2+zi9cULM+w0u+Hp+ja6l5IsEouWhngw0QsPtNv0n2xhNvjsWqUY/2B6qm/ayi3ijoMuAkrr/KAP/jnYJkG12AVQW93kXkUS3i+0kXpWSwv7w6fsi/HKiMcjFX2fBhrejEf85tNwwKDq4BGrJJoWLAm+ZfRlVilhOlY5535ft5qF7oDsEJ7rVhCdlCoT/FTEqyyFa5NwMJELL7Qb976kB/lgx6ecqOfb9wQdkvcjNWBymB1re71L4QJWJ7gc1iu3zIsLWecj9v7Lvjvk5tIDBYJvxarvNCC1avaxs676TRjeYYtfmxw3ikusBeR7e6zCEu4PhNbVRYSrLIWL7B0jmayibA9pRlYSXZVa6ixxK2YYFr8nlsrE/21dVi/wlmYb+odn4oVm4NcvKrJXT1cAhwuwZJgDRW2uv9lyhD9/C3kFtMLfHoVbiFdiiUO/6lbN+uwJOKmPr6OncVqjcH8WtMi20f69DJcnE9IsAbvFDMRi7/lUxitPOWyB+avehrzWU3EOupcifmNeiNOVXkEqWonlvBszAEf5gBsVVFiVST/gSg9z6AaSPk4FHO+D3cr7H1swWMsFnaQ7sZ9HCxoBGLUgfnBPh46rhaL1Qq+wNNYhkM4dmsB5tAfjfnNgvI057kFKGRhDRmWAAng3CHwWTM92Gch8NfYSmJQluUUrDLndt/vPWz17g2s802UwO90BVYA8FdYytUNLlQpF6u9ySYft2F+xfOxSqevYrWyZgN3Ab/AnP6nuBV4u25hCdZQmhZ2JGLxB/0BGDuIP2oaeAJznIM50SvJDeto933ec4H5W+DzLhybsAJ3gZN+u0/RjvN7udVFZwbZAN91wLXAp92yasNWHTe6UB3lQncHttobNLG4A4vLGunHtWKxXMf4MTV+Hc9j4RJCgjWkeBF4DAtKHQg15TO7eMxjob/nAr+LnKsTi8kKWOUWTSFWYDFXYR6JiOTv/SfMPP8pxEqsVnuYrZgv7VndrqVBPqzysbLasJieeQPkkjdTuFVWfwufkGCJMmAJ1lhhxQC41pV0LSkshARrCFlZYB1YrhgAorV06tJUPuuoA4so367/USHBGvyilcYSc8/FVqY6y/AyW7A0mXy8jC0eXEH+Zg9C7DJyupepaCVi8eeBs7Bed+dj+XPl8gWzCGuokO/a12HL/0LIwhpK08PGVLIJW7Y/GUsQTmLO7lJWd8hgXYy1lC9kYYkuwtUGvJ6IxRdgnYT3x6oYHIClkzQV+ZKWA08W8F8JIcES/+/bWu0/pSKNRYmr2afQlFCUNRms2ueMqUtTnRoOIcES5cxCLBFZzT6FBEuUNW8DlwHJqUtTGg0hwRJlSRorXXwu8KIc7aLUyOkuCtGM1aufDjTJshISLFFuZLD4qieBh4A5U5em1PVaSLBEyenEOtFUYp1+3sIqRbwKvCmhEhIsUU58AJyNFbTbCGyaujSl6gtCCCGEEEIIIYQQQgghhBBDgT8CiKUxU3xRK9MAAAAldEVYdGRhdGU6Y3JlYXRlADIwMTgtMDktMjZUMDE6NTM6MTQtMDY6MDAW9Uu5AAAAJXRFWHRkYXRlOm1vZGlmeQAyMDE4LTA5LTI2VDAxOjUzOjE0LTA2OjAwZ6jzBQAAABl0RVh0U29mdHdhcmUAQWRvYmUgSW1hZ2VSZWFkeXHJZTwAAAAASUVORK5CYII=&quot;,&quot;width&quot;:&quot;300&quot;,&quot;height&quot;:&quot;133&quot;,&quot;x&quot;:0,&quot;y&quot;:0}" math="0" shadow="0">
      <root>
        <mxCell id="WIyWlLk6GJQsqaUBKTNV-0" />
        <mxCell id="WIyWlLk6GJQsqaUBKTNV-1" parent="WIyWlLk6GJQsqaUBKTNV-0" />
        <mxCell id="8pZ8ATKJ1Jegab0F-tyK-20" value="&lt;span&gt;&lt;font&gt;Student&lt;/font&gt;&lt;/span&gt;" style="swimlane;childLayout=stackLayout;horizontal=1;startSize=50;horizontalStack=0;rounded=1;fontSize=14;fontStyle=1;strokeWidth=2;resizeParent=0;resizeLast=1;shadow=0;dashed=0;align=center;arcSize=4;whiteSpace=wrap;html=1;strokeColor=#0F8B8D;fontColor=#143642;fillColor=#FFE599;labelBackgroundColor=none;fontFamily=Times New Roman;" parent="WIyWlLk6GJQsqaUBKTNV-1" vertex="1">
          <mxGeometry x="410" y="40" width="160" height="230" as="geometry">
            <mxRectangle x="80" y="300" width="80" height="50" as="alternateBounds" />
          </mxGeometry>
        </mxCell>
        <mxCell id="8pZ8ATKJ1Jegab0F-tyK-21" value="&lt;font style=&quot;&quot;&gt;&lt;span&gt;&lt;u&gt;St-SSN&lt;br&gt;&lt;/u&gt;Fname&lt;br&gt;Lname&lt;br&gt;Faculty&lt;br&gt;Grad-year&lt;br&gt;City&lt;br&gt;Email&lt;br&gt;Age&lt;br&gt;Password&lt;br&gt;Gender&lt;br&gt;Phone&lt;/span&gt;&lt;/font&gt;" style="align=left;strokeColor=none;fillColor=none;spacingLeft=4;fontSize=12;verticalAlign=top;resizable=0;rotatable=0;part=1;html=1;fontColor=#143642;rounded=1;labelBackgroundColor=none;fontFamily=Times New Roman;fontStyle=1;strokeWidth=2;" parent="8pZ8ATKJ1Jegab0F-tyK-20" vertex="1">
          <mxGeometry y="50" width="160" height="180" as="geometry" />
        </mxCell>
        <mxCell id="8pZ8ATKJ1Jegab0F-tyK-32" value="&lt;span&gt;&lt;font&gt;Instructor&lt;/font&gt;&lt;/span&gt;" style="swimlane;childLayout=stackLayout;horizontal=1;startSize=50;horizontalStack=0;rounded=1;fontSize=14;fontStyle=1;strokeWidth=2;resizeParent=0;resizeLast=1;shadow=0;dashed=0;align=center;arcSize=4;whiteSpace=wrap;html=1;strokeColor=#0F8B8D;fontColor=#143642;fillColor=#FFE599;labelBackgroundColor=none;fontFamily=Times New Roman;" parent="WIyWlLk6GJQsqaUBKTNV-1" vertex="1">
          <mxGeometry x="1130" y="490" width="160" height="240" as="geometry">
            <mxRectangle x="80" y="300" width="80" height="50" as="alternateBounds" />
          </mxGeometry>
        </mxCell>
        <mxCell id="8pZ8ATKJ1Jegab0F-tyK-33" value="&lt;font style=&quot;&quot;&gt;&lt;span&gt;&lt;u&gt;Ins-SSN&lt;br&gt;&lt;/u&gt;Fname&lt;br&gt;Lname&lt;br&gt;Jop-Tittle&lt;br&gt;Salary&lt;br&gt;City&lt;br&gt;Email&lt;br&gt;Age&lt;br&gt;Password&lt;br&gt;Gender&lt;br&gt;Phone&lt;br&gt;Start-Date&lt;br&gt;&lt;/span&gt;&lt;/font&gt;" style="align=left;strokeColor=none;fillColor=none;spacingLeft=4;fontSize=12;verticalAlign=top;resizable=0;rotatable=0;part=1;html=1;fontColor=#143642;rounded=1;labelBackgroundColor=none;fontFamily=Times New Roman;fontStyle=1;strokeWidth=2;" parent="8pZ8ATKJ1Jegab0F-tyK-32" vertex="1">
          <mxGeometry y="50" width="160" height="190" as="geometry" />
        </mxCell>
        <mxCell id="bm38EulNQy2IUuMWdBK0-0" value="&lt;span&gt;&lt;font&gt;Intake&lt;/font&gt;&lt;/span&gt;" style="swimlane;childLayout=stackLayout;horizontal=1;startSize=50;horizontalStack=0;rounded=1;fontSize=14;fontStyle=1;strokeWidth=2;resizeParent=0;resizeLast=1;shadow=0;dashed=0;align=center;arcSize=4;whiteSpace=wrap;html=1;strokeColor=#0F8B8D;fontColor=#143642;fillColor=#FFE599;labelBackgroundColor=none;fontFamily=Times New Roman;" parent="WIyWlLk6GJQsqaUBKTNV-1" vertex="1">
          <mxGeometry x="800" y="361" width="160" height="80" as="geometry">
            <mxRectangle x="80" y="300" width="80" height="50" as="alternateBounds" />
          </mxGeometry>
        </mxCell>
        <mxCell id="bm38EulNQy2IUuMWdBK0-1" value="&lt;font style=&quot;&quot;&gt;&lt;span&gt;&lt;u&gt;Intake-Num&lt;/u&gt;&lt;br&gt;&lt;/span&gt;&lt;/font&gt;" style="align=left;strokeColor=none;fillColor=none;spacingLeft=4;fontSize=12;verticalAlign=top;resizable=0;rotatable=0;part=1;html=1;fontColor=#143642;rounded=1;labelBackgroundColor=none;fontFamily=Times New Roman;fontStyle=1;strokeWidth=2;" parent="bm38EulNQy2IUuMWdBK0-0" vertex="1">
          <mxGeometry y="50" width="160" height="30" as="geometry" />
        </mxCell>
        <mxCell id="bm38EulNQy2IUuMWdBK0-2" value="&lt;span&gt;&lt;font&gt;Branch&lt;/font&gt;&lt;/span&gt;" style="swimlane;childLayout=stackLayout;horizontal=1;startSize=50;horizontalStack=0;rounded=1;fontSize=14;fontStyle=1;strokeWidth=2;resizeParent=0;resizeLast=1;shadow=0;dashed=0;align=center;arcSize=4;whiteSpace=wrap;html=1;strokeColor=#0F8B8D;fontColor=#143642;fillColor=#FFE599;labelBackgroundColor=none;fontFamily=Times New Roman;" parent="WIyWlLk6GJQsqaUBKTNV-1" vertex="1">
          <mxGeometry x="800" y="40" width="160" height="91" as="geometry">
            <mxRectangle x="80" y="300" width="80" height="50" as="alternateBounds" />
          </mxGeometry>
        </mxCell>
        <mxCell id="bm38EulNQy2IUuMWdBK0-3" value="&lt;font style=&quot;&quot;&gt;&lt;span&gt;&lt;u&gt;Branch-ID&lt;br&gt;&lt;/u&gt;Branch-Loc&lt;br&gt;&lt;/span&gt;&lt;/font&gt;" style="align=left;strokeColor=none;fillColor=none;spacingLeft=4;fontSize=12;verticalAlign=top;resizable=0;rotatable=0;part=1;html=1;fontColor=#143642;rounded=1;labelBackgroundColor=none;fontFamily=Times New Roman;fontStyle=1;strokeWidth=2;" parent="bm38EulNQy2IUuMWdBK0-2" vertex="1">
          <mxGeometry y="50" width="160" height="41" as="geometry" />
        </mxCell>
        <mxCell id="bm38EulNQy2IUuMWdBK0-4" value="&lt;span&gt;&lt;font&gt;Track&lt;/font&gt;&lt;/span&gt;" style="swimlane;childLayout=stackLayout;horizontal=1;startSize=50;horizontalStack=0;rounded=1;fontSize=14;fontStyle=1;strokeWidth=2;resizeParent=0;resizeLast=1;shadow=0;dashed=0;align=center;arcSize=4;whiteSpace=wrap;html=1;strokeColor=#0F8B8D;fontColor=#143642;fillColor=#FFE599;labelBackgroundColor=none;fontFamily=Times New Roman;" parent="WIyWlLk6GJQsqaUBKTNV-1" vertex="1">
          <mxGeometry x="1130" y="40" width="160" height="120" as="geometry">
            <mxRectangle x="80" y="300" width="80" height="50" as="alternateBounds" />
          </mxGeometry>
        </mxCell>
        <mxCell id="bm38EulNQy2IUuMWdBK0-5" value="&lt;font style=&quot;&quot;&gt;Manager-SSN&lt;span style=&quot;text-decoration-line: underline; white-space: pre;&quot;&gt;&#x9;&lt;/span&gt;FK&lt;br&gt;&lt;u&gt;Track-ID&lt;/u&gt;&lt;br&gt;Track-Name&lt;br&gt;Hiring-Date&lt;br&gt;&lt;/font&gt;" style="align=left;strokeColor=none;fillColor=none;spacingLeft=4;fontSize=12;verticalAlign=top;resizable=0;rotatable=0;part=1;html=1;fontColor=#143642;rounded=1;labelBackgroundColor=none;fontFamily=Times New Roman;fontStyle=1;strokeWidth=2;" parent="bm38EulNQy2IUuMWdBK0-4" vertex="1">
          <mxGeometry y="50" width="160" height="70" as="geometry" />
        </mxCell>
        <mxCell id="bm38EulNQy2IUuMWdBK0-6" value="&lt;span&gt;&lt;font&gt;Course&lt;/font&gt;&lt;/span&gt;" style="swimlane;childLayout=stackLayout;horizontal=1;startSize=50;horizontalStack=0;rounded=1;fontSize=14;fontStyle=1;strokeWidth=2;resizeParent=0;resizeLast=1;shadow=0;dashed=0;align=center;arcSize=4;whiteSpace=wrap;html=1;strokeColor=#0F8B8D;fontColor=#143642;fillColor=#FFE599;labelBackgroundColor=none;fontFamily=Times New Roman;" parent="WIyWlLk6GJQsqaUBKTNV-1" vertex="1">
          <mxGeometry x="800" y="659" width="160" height="110" as="geometry">
            <mxRectangle x="80" y="300" width="80" height="50" as="alternateBounds" />
          </mxGeometry>
        </mxCell>
        <mxCell id="bm38EulNQy2IUuMWdBK0-7" value="&lt;font style=&quot;&quot;&gt;&lt;span&gt;&lt;u&gt;Course-ID&lt;br&gt;&lt;/u&gt;Course-Name&lt;br&gt;Course-Hours&lt;br&gt;&lt;br&gt;&lt;/span&gt;&lt;/font&gt;" style="align=left;strokeColor=none;fillColor=none;spacingLeft=4;fontSize=12;verticalAlign=top;resizable=0;rotatable=0;part=1;html=1;fontColor=#143642;rounded=1;labelBackgroundColor=none;fontFamily=Times New Roman;fontStyle=1;strokeWidth=2;" parent="bm38EulNQy2IUuMWdBK0-6" vertex="1">
          <mxGeometry y="50" width="160" height="60" as="geometry" />
        </mxCell>
        <mxCell id="bm38EulNQy2IUuMWdBK0-12" style="edgeStyle=orthogonalEdgeStyle;rounded=1;orthogonalLoop=1;jettySize=auto;html=1;exitX=0.5;exitY=1;exitDx=0;exitDy=0;labelBackgroundColor=none;strokeColor=#A8201A;fontColor=default;fontFamily=Times New Roman;fontStyle=1;strokeWidth=2;" parent="bm38EulNQy2IUuMWdBK0-6" source="bm38EulNQy2IUuMWdBK0-7" target="bm38EulNQy2IUuMWdBK0-7" edge="1">
          <mxGeometry relative="1" as="geometry" />
        </mxCell>
        <mxCell id="bm38EulNQy2IUuMWdBK0-8" value="&lt;span&gt;&lt;font&gt;Topic&lt;/font&gt;&lt;/span&gt;" style="swimlane;childLayout=stackLayout;horizontal=1;startSize=50;horizontalStack=0;rounded=1;fontSize=14;fontStyle=1;strokeWidth=2;resizeParent=0;resizeLast=1;shadow=0;dashed=0;align=center;arcSize=4;whiteSpace=wrap;html=1;strokeColor=#0F8B8D;fontColor=#143642;fillColor=#FFE599;labelBackgroundColor=none;fontFamily=Times New Roman;" parent="WIyWlLk6GJQsqaUBKTNV-1" vertex="1">
          <mxGeometry x="800" y="810" width="160" height="110" as="geometry">
            <mxRectangle x="80" y="300" width="80" height="50" as="alternateBounds" />
          </mxGeometry>
        </mxCell>
        <mxCell id="bm38EulNQy2IUuMWdBK0-9" value="&lt;font style=&quot;&quot;&gt;&lt;u&gt;Topic-ID&lt;br&gt;&lt;/u&gt;Topic-Name&lt;br&gt;&lt;span style=&quot;border-color: var(--border-color);&quot;&gt;Course-ID&lt;span style=&quot;white-space: pre;&quot;&gt;&#x9;&lt;/span&gt;&lt;span style=&quot;white-space: pre;&quot;&gt;&#x9;&lt;/span&gt;FK&lt;br style=&quot;border-color: var(--border-color);&quot;&gt;&lt;/span&gt;&lt;/font&gt;" style="align=left;strokeColor=none;fillColor=none;spacingLeft=4;fontSize=12;verticalAlign=top;resizable=0;rotatable=0;part=1;html=1;fontColor=#143642;rounded=1;labelBackgroundColor=none;fontFamily=Times New Roman;fontStyle=1;strokeWidth=2;" parent="bm38EulNQy2IUuMWdBK0-8" vertex="1">
          <mxGeometry y="50" width="160" height="60" as="geometry" />
        </mxCell>
        <mxCell id="bm38EulNQy2IUuMWdBK0-10" value="&lt;span&gt;&lt;font&gt;Question&lt;/font&gt;&lt;/span&gt;" style="swimlane;childLayout=stackLayout;horizontal=1;startSize=50;horizontalStack=0;rounded=1;fontSize=14;fontStyle=1;strokeWidth=2;resizeParent=0;resizeLast=1;shadow=0;dashed=0;align=center;arcSize=4;whiteSpace=wrap;html=1;strokeColor=#0F8B8D;fontColor=#143642;fillColor=#FFE599;labelBackgroundColor=none;fontFamily=Times New Roman;" parent="WIyWlLk6GJQsqaUBKTNV-1" vertex="1">
          <mxGeometry x="410" y="780" width="160" height="150" as="geometry">
            <mxRectangle x="80" y="300" width="80" height="50" as="alternateBounds" />
          </mxGeometry>
        </mxCell>
        <mxCell id="bm38EulNQy2IUuMWdBK0-11" value="&lt;font style=&quot;&quot;&gt;&lt;span&gt;&lt;u&gt;Ques-ID&lt;br&gt;&lt;/u&gt;Ques&lt;br&gt;Ques-Type&lt;br&gt;Answer&lt;br&gt;Fullmark&lt;br&gt;Course-ID&lt;span style=&quot;white-space: pre;&quot;&gt;&#x9;&lt;/span&gt;&lt;span style=&quot;white-space: pre;&quot;&gt;&#x9;&lt;/span&gt;FK&lt;br&gt;&lt;/span&gt;&lt;/font&gt;" style="align=left;strokeColor=none;fillColor=none;spacingLeft=4;fontSize=12;verticalAlign=top;resizable=0;rotatable=0;part=1;html=1;fontColor=#143642;rounded=1;labelBackgroundColor=none;fontFamily=Times New Roman;fontStyle=1;strokeWidth=2;" parent="bm38EulNQy2IUuMWdBK0-10" vertex="1">
          <mxGeometry y="50" width="160" height="100" as="geometry" />
        </mxCell>
        <mxCell id="bm38EulNQy2IUuMWdBK0-14" value="&lt;span&gt;&lt;font&gt;Exam&lt;/font&gt;&lt;/span&gt;" style="swimlane;childLayout=stackLayout;horizontal=1;startSize=50;horizontalStack=0;rounded=1;fontSize=14;fontStyle=1;strokeWidth=2;resizeParent=0;resizeLast=1;shadow=0;dashed=0;align=center;arcSize=4;whiteSpace=wrap;html=1;strokeColor=#0F8B8D;fontColor=#143642;fillColor=#FFE599;labelBackgroundColor=none;fontFamily=Times New Roman;" parent="WIyWlLk6GJQsqaUBKTNV-1" vertex="1">
          <mxGeometry x="410" y="565" width="160" height="110" as="geometry">
            <mxRectangle x="80" y="300" width="80" height="50" as="alternateBounds" />
          </mxGeometry>
        </mxCell>
        <mxCell id="bm38EulNQy2IUuMWdBK0-15" value="&lt;font style=&quot;&quot;&gt;&lt;u&gt;Exam-ID&lt;br&gt;&lt;/u&gt;Number-Of-Questions&lt;br&gt;Course-ID&lt;span style=&quot;white-space: pre;&quot;&gt;&#x9;&lt;/span&gt;&lt;span style=&quot;white-space: pre;&quot;&gt;&#x9;&lt;/span&gt;FK&lt;span&gt;&lt;br&gt;&lt;/span&gt;&lt;/font&gt;" style="align=left;strokeColor=none;fillColor=none;spacingLeft=4;fontSize=12;verticalAlign=top;resizable=0;rotatable=0;part=1;html=1;fontColor=#143642;rounded=1;labelBackgroundColor=none;fontFamily=Times New Roman;fontStyle=1;strokeWidth=2;" parent="bm38EulNQy2IUuMWdBK0-14" vertex="1">
          <mxGeometry y="50" width="160" height="60" as="geometry" />
        </mxCell>
        <mxCell id="bm38EulNQy2IUuMWdBK0-16" style="edgeStyle=orthogonalEdgeStyle;rounded=1;orthogonalLoop=1;jettySize=auto;html=1;exitX=0.5;exitY=1;exitDx=0;exitDy=0;labelBackgroundColor=none;strokeColor=#A8201A;fontColor=default;fontFamily=Times New Roman;fontStyle=1;strokeWidth=2;" parent="bm38EulNQy2IUuMWdBK0-14" source="bm38EulNQy2IUuMWdBK0-15" target="bm38EulNQy2IUuMWdBK0-15" edge="1">
          <mxGeometry relative="1" as="geometry" />
        </mxCell>
        <mxCell id="bm38EulNQy2IUuMWdBK0-17" value="&lt;span&gt;&lt;font&gt;Graduate&lt;/font&gt;&lt;/span&gt;" style="swimlane;childLayout=stackLayout;horizontal=1;startSize=50;horizontalStack=0;rounded=1;fontSize=14;fontStyle=1;strokeWidth=2;resizeParent=0;resizeLast=1;shadow=0;dashed=0;align=center;arcSize=4;whiteSpace=wrap;html=1;strokeColor=#0F8B8D;fontColor=#143642;fillColor=#FFE599;labelBackgroundColor=none;fontFamily=Times New Roman;" parent="WIyWlLk6GJQsqaUBKTNV-1" vertex="1">
          <mxGeometry x="90" y="160" width="160" height="110" as="geometry">
            <mxRectangle x="80" y="300" width="80" height="50" as="alternateBounds" />
          </mxGeometry>
        </mxCell>
        <mxCell id="bm38EulNQy2IUuMWdBK0-18" value="&lt;font style=&quot;&quot;&gt;&lt;u style=&quot;border-color: var(--border-color);&quot;&gt;St-SSN&lt;span style=&quot;white-space: pre;&quot;&gt;&#x9;&lt;/span&gt;&lt;span style=&quot;white-space: pre;&quot;&gt;&#x9;&lt;span style=&quot;white-space: pre;&quot;&gt;&#x9;&lt;/span&gt;&lt;/span&gt;&lt;/u&gt;FK&lt;br style=&quot;border-color: var(--border-color);&quot;&gt;&lt;span&gt;&lt;u&gt;Current-Job&lt;br&gt;Company&lt;/u&gt;&lt;br&gt;&lt;/span&gt;&lt;/font&gt;" style="align=left;strokeColor=none;fillColor=none;spacingLeft=4;fontSize=12;verticalAlign=top;resizable=0;rotatable=0;part=1;html=1;fontColor=#143642;rounded=1;labelBackgroundColor=none;fontFamily=Times New Roman;fontStyle=1;strokeWidth=2;" parent="bm38EulNQy2IUuMWdBK0-17" vertex="1">
          <mxGeometry y="50" width="160" height="60" as="geometry" />
        </mxCell>
        <mxCell id="bm38EulNQy2IUuMWdBK0-19" style="edgeStyle=orthogonalEdgeStyle;rounded=1;orthogonalLoop=1;jettySize=auto;html=1;exitX=0.5;exitY=1;exitDx=0;exitDy=0;labelBackgroundColor=none;strokeColor=#A8201A;fontColor=default;fontFamily=Times New Roman;fontStyle=1;strokeWidth=2;" parent="bm38EulNQy2IUuMWdBK0-17" source="bm38EulNQy2IUuMWdBK0-18" target="bm38EulNQy2IUuMWdBK0-18" edge="1">
          <mxGeometry relative="1" as="geometry" />
        </mxCell>
        <mxCell id="bm38EulNQy2IUuMWdBK0-20" value="&lt;span&gt;&lt;font&gt;Freelance&lt;/font&gt;&lt;/span&gt;" style="swimlane;childLayout=stackLayout;horizontal=1;startSize=50;horizontalStack=0;rounded=1;fontSize=14;fontStyle=1;strokeWidth=2;resizeParent=0;resizeLast=1;shadow=0;dashed=0;align=center;arcSize=4;whiteSpace=wrap;html=1;strokeColor=#0F8B8D;fontColor=#143642;fillColor=#FFE599;labelBackgroundColor=none;fontFamily=Times New Roman;" parent="WIyWlLk6GJQsqaUBKTNV-1" vertex="1">
          <mxGeometry x="90" y="305" width="160" height="160" as="geometry">
            <mxRectangle x="80" y="300" width="80" height="50" as="alternateBounds" />
          </mxGeometry>
        </mxCell>
        <mxCell id="bm38EulNQy2IUuMWdBK0-21" value="&lt;font style=&quot;&quot;&gt;&lt;u style=&quot;border-color: var(--border-color);&quot;&gt;St-SSN&lt;span style=&quot;white-space: pre;&quot;&gt;&#x9;&lt;/span&gt;&lt;span style=&quot;white-space: pre;&quot;&gt;&#x9;&lt;span style=&quot;white-space: pre;&quot;&gt;&#x9;&lt;/span&gt;&lt;/span&gt;&lt;/u&gt;FK&lt;br style=&quot;border-color: var(--border-color);&quot;&gt;&lt;span&gt;&lt;u&gt;Task-Desk&lt;/u&gt;&lt;br&gt;&lt;u&gt;Client-Name&lt;br&gt;Date&lt;/u&gt;&lt;br&gt;Cost&lt;br&gt;Status&lt;br&gt;Paltform&lt;br&gt;&lt;/span&gt;&lt;/font&gt;" style="align=left;strokeColor=none;fillColor=none;spacingLeft=4;fontSize=12;verticalAlign=top;resizable=0;rotatable=0;part=1;html=1;fontColor=#143642;rounded=1;labelBackgroundColor=none;fontFamily=Times New Roman;fontStyle=1;strokeWidth=2;" parent="bm38EulNQy2IUuMWdBK0-20" vertex="1">
          <mxGeometry y="50" width="160" height="110" as="geometry" />
        </mxCell>
        <mxCell id="bm38EulNQy2IUuMWdBK0-22" style="edgeStyle=orthogonalEdgeStyle;rounded=1;orthogonalLoop=1;jettySize=auto;html=1;exitX=0.5;exitY=1;exitDx=0;exitDy=0;labelBackgroundColor=none;strokeColor=#A8201A;fontColor=default;fontFamily=Times New Roman;fontStyle=1;strokeWidth=2;" parent="bm38EulNQy2IUuMWdBK0-20" source="bm38EulNQy2IUuMWdBK0-21" target="bm38EulNQy2IUuMWdBK0-21" edge="1">
          <mxGeometry relative="1" as="geometry" />
        </mxCell>
        <mxCell id="bm38EulNQy2IUuMWdBK0-23" value="&lt;span&gt;&lt;font&gt;Certificate&lt;/font&gt;&lt;/span&gt;" style="swimlane;childLayout=stackLayout;horizontal=1;startSize=50;horizontalStack=0;rounded=1;fontSize=14;fontStyle=1;strokeWidth=2;resizeParent=0;resizeLast=1;shadow=0;dashed=0;align=center;arcSize=4;whiteSpace=wrap;html=1;strokeColor=#0F8B8D;fontColor=#143642;fillColor=#FFE599;labelBackgroundColor=none;fontFamily=Times New Roman;" parent="WIyWlLk6GJQsqaUBKTNV-1" vertex="1">
          <mxGeometry x="90" y="490" width="160" height="129" as="geometry">
            <mxRectangle x="80" y="300" width="80" height="50" as="alternateBounds" />
          </mxGeometry>
        </mxCell>
        <mxCell id="bm38EulNQy2IUuMWdBK0-24" value="&lt;font style=&quot;&quot;&gt;&lt;u&gt;St-SSN&lt;span style=&quot;white-space: pre;&quot;&gt;&#x9;&lt;/span&gt;&lt;span style=&quot;white-space: pre;&quot;&gt;&#x9;&lt;span style=&quot;white-space: pre;&quot;&gt;&#x9;&lt;/span&gt;&lt;/span&gt;&lt;/u&gt;FK&lt;br&gt;&lt;u&gt;Verification-ID&lt;/u&gt;&lt;br&gt;&lt;u&gt;Certificate-Name&lt;br&gt;&lt;/u&gt;Provider&lt;br&gt;Date&lt;br&gt;&lt;/font&gt;" style="align=left;strokeColor=none;fillColor=none;spacingLeft=4;fontSize=12;verticalAlign=top;resizable=0;rotatable=0;part=1;html=1;fontColor=#143642;rounded=1;labelBackgroundColor=none;fontFamily=Times New Roman;fontStyle=1;strokeWidth=2;" parent="bm38EulNQy2IUuMWdBK0-23" vertex="1">
          <mxGeometry y="50" width="160" height="79" as="geometry" />
        </mxCell>
        <mxCell id="bm38EulNQy2IUuMWdBK0-25" style="edgeStyle=orthogonalEdgeStyle;rounded=1;orthogonalLoop=1;jettySize=auto;html=1;exitX=0.5;exitY=1;exitDx=0;exitDy=0;labelBackgroundColor=none;strokeColor=#A8201A;fontColor=default;fontFamily=Times New Roman;fontStyle=1;strokeWidth=2;" parent="bm38EulNQy2IUuMWdBK0-23" source="bm38EulNQy2IUuMWdBK0-24" target="bm38EulNQy2IUuMWdBK0-24" edge="1">
          <mxGeometry relative="1" as="geometry" />
        </mxCell>
        <mxCell id="bm38EulNQy2IUuMWdBK0-26" value="&lt;span&gt;&lt;font&gt;Question Choices&lt;/font&gt;&lt;/span&gt;" style="swimlane;childLayout=stackLayout;horizontal=1;startSize=50;horizontalStack=0;rounded=1;fontSize=14;fontStyle=1;strokeWidth=2;resizeParent=0;resizeLast=1;shadow=0;dashed=0;align=center;arcSize=4;whiteSpace=wrap;html=1;strokeColor=#0F8B8D;fontColor=#143642;fillColor=#FFE599;labelBackgroundColor=none;fontFamily=Times New Roman;" parent="WIyWlLk6GJQsqaUBKTNV-1" vertex="1">
          <mxGeometry x="90" y="810" width="160" height="90" as="geometry">
            <mxRectangle x="80" y="300" width="80" height="50" as="alternateBounds" />
          </mxGeometry>
        </mxCell>
        <mxCell id="bm38EulNQy2IUuMWdBK0-27" value="&lt;font style=&quot;&quot;&gt;&lt;span&gt;&lt;u&gt;Ques-ID&lt;span style=&quot;white-space: pre;&quot;&gt;&#x9;&lt;/span&gt;&lt;span style=&quot;white-space: pre;&quot;&gt;&#x9;&lt;/span&gt;&lt;span style=&quot;white-space: pre;&quot;&gt;&#x9;&lt;/span&gt;&lt;/u&gt;FK&lt;br&gt;&lt;u&gt;Choice&lt;/u&gt;&lt;br&gt;&lt;/span&gt;&lt;/font&gt;" style="align=left;strokeColor=none;fillColor=none;spacingLeft=4;fontSize=12;verticalAlign=top;resizable=0;rotatable=0;part=1;html=1;fontColor=#143642;rounded=1;labelBackgroundColor=none;fontFamily=Times New Roman;fontStyle=1;strokeWidth=2;" parent="bm38EulNQy2IUuMWdBK0-26" vertex="1">
          <mxGeometry y="50" width="160" height="40" as="geometry" />
        </mxCell>
        <mxCell id="bm38EulNQy2IUuMWdBK0-47" value="" style="curved=1;endArrow=classic;html=1;rounded=1;edgeStyle=orthogonalEdgeStyle;exitX=0;exitY=0.25;exitDx=0;exitDy=0;labelBackgroundColor=none;strokeColor=#A8201A;fontColor=default;fontFamily=Times New Roman;fontStyle=1;entryX=-0.013;entryY=0.056;entryDx=0;entryDy=0;entryPerimeter=0;strokeWidth=2;" parent="WIyWlLk6GJQsqaUBKTNV-1" source="bm38EulNQy2IUuMWdBK0-18" target="8pZ8ATKJ1Jegab0F-tyK-21" edge="1">
          <mxGeometry width="50" height="50" relative="1" as="geometry">
            <mxPoint x="50" y="240" as="sourcePoint" />
            <mxPoint x="310" y="120" as="targetPoint" />
            <Array as="points">
              <mxPoint x="50" y="225" />
              <mxPoint x="50" y="150" />
              <mxPoint x="310" y="150" />
              <mxPoint x="310" y="100" />
            </Array>
          </mxGeometry>
        </mxCell>
        <mxCell id="bm38EulNQy2IUuMWdBK0-53" value="&lt;span&gt;&lt;font&gt;Ins-Branch&lt;/font&gt;&lt;/span&gt;" style="swimlane;childLayout=stackLayout;horizontal=1;startSize=50;horizontalStack=0;rounded=1;fontSize=14;fontStyle=1;strokeWidth=2;resizeParent=0;resizeLast=1;shadow=0;dashed=0;align=center;arcSize=4;whiteSpace=wrap;html=1;strokeColor=#0F8B8D;fontColor=#143642;fillColor=#FFE599;labelBackgroundColor=none;fontFamily=Times New Roman;" parent="WIyWlLk6GJQsqaUBKTNV-1" vertex="1">
          <mxGeometry x="1130" y="350" width="160" height="91" as="geometry">
            <mxRectangle x="80" y="300" width="80" height="50" as="alternateBounds" />
          </mxGeometry>
        </mxCell>
        <mxCell id="bm38EulNQy2IUuMWdBK0-54" value="&lt;font style=&quot;&quot;&gt;&lt;span&gt;&lt;u&gt;Ins-SSN&lt;span style=&quot;white-space: pre;&quot;&gt;&#x9;&lt;/span&gt;&lt;span style=&quot;white-space: pre;&quot;&gt;&#x9;&lt;/span&gt;&lt;span style=&quot;white-space: pre;&quot;&gt;&#x9;&lt;/span&gt;FK&lt;br&gt;&lt;/u&gt;Branch-ID&lt;span style=&quot;white-space: pre;&quot;&gt;&#x9;&lt;/span&gt;&lt;span style=&quot;white-space: pre;&quot;&gt;&#x9;&lt;/span&gt;FK&lt;br&gt;&lt;/span&gt;&lt;/font&gt;" style="align=left;strokeColor=none;fillColor=none;spacingLeft=4;fontSize=12;verticalAlign=top;resizable=0;rotatable=0;part=1;html=1;fontColor=#143642;rounded=1;labelBackgroundColor=none;fontFamily=Times New Roman;fontStyle=1;strokeWidth=2;" parent="bm38EulNQy2IUuMWdBK0-53" vertex="1">
          <mxGeometry y="50" width="160" height="41" as="geometry" />
        </mxCell>
        <mxCell id="bm38EulNQy2IUuMWdBK0-58" value="&lt;span&gt;&lt;font&gt;Ins-Courses&lt;/font&gt;&lt;/span&gt;" style="swimlane;childLayout=stackLayout;horizontal=1;startSize=50;horizontalStack=0;rounded=1;fontSize=14;fontStyle=1;strokeWidth=2;resizeParent=0;resizeLast=1;shadow=0;dashed=0;align=center;arcSize=4;whiteSpace=wrap;html=1;strokeColor=#0F8B8D;fontColor=#143642;fillColor=#FFE599;labelBackgroundColor=none;fontFamily=Times New Roman;" parent="WIyWlLk6GJQsqaUBKTNV-1" vertex="1">
          <mxGeometry x="1130" y="810" width="160" height="110" as="geometry">
            <mxRectangle x="80" y="300" width="80" height="50" as="alternateBounds" />
          </mxGeometry>
        </mxCell>
        <mxCell id="bm38EulNQy2IUuMWdBK0-59" value="&lt;font style=&quot;&quot;&gt;&lt;u&gt;Ins-ID&lt;/u&gt;&amp;nbsp; &amp;nbsp; &amp;nbsp; &amp;nbsp; &amp;nbsp; &amp;nbsp; &amp;nbsp;FK&lt;br&gt;&lt;u&gt;Course-ID&lt;/u&gt;&amp;nbsp; &amp;nbsp; &amp;nbsp; FK&lt;br&gt;&lt;/font&gt;" style="align=left;strokeColor=none;fillColor=none;spacingLeft=4;fontSize=12;verticalAlign=top;resizable=0;rotatable=0;part=1;html=1;fontColor=#143642;rounded=1;labelBackgroundColor=none;fontFamily=Times New Roman;fontStyle=1;strokeWidth=2;" parent="bm38EulNQy2IUuMWdBK0-58" vertex="1">
          <mxGeometry y="50" width="160" height="60" as="geometry" />
        </mxCell>
        <mxCell id="bm38EulNQy2IUuMWdBK0-60" style="edgeStyle=orthogonalEdgeStyle;rounded=1;orthogonalLoop=1;jettySize=auto;html=1;exitX=0.5;exitY=1;exitDx=0;exitDy=0;labelBackgroundColor=none;strokeColor=#A8201A;fontColor=default;fontFamily=Times New Roman;fontStyle=1;strokeWidth=2;" parent="bm38EulNQy2IUuMWdBK0-58" source="bm38EulNQy2IUuMWdBK0-59" target="bm38EulNQy2IUuMWdBK0-59" edge="1">
          <mxGeometry relative="1" as="geometry" />
        </mxCell>
        <mxCell id="bm38EulNQy2IUuMWdBK0-63" value="&lt;span&gt;&lt;font&gt;Branch Track&#39;s&lt;/font&gt;&lt;/span&gt;" style="swimlane;childLayout=stackLayout;horizontal=1;startSize=50;horizontalStack=0;rounded=1;fontSize=14;fontStyle=1;strokeWidth=2;resizeParent=0;resizeLast=1;shadow=0;dashed=0;align=center;arcSize=4;whiteSpace=wrap;html=1;strokeColor=#0F8B8D;fontColor=#143642;fillColor=#FFE599;labelBackgroundColor=none;fontFamily=Times New Roman;" parent="WIyWlLk6GJQsqaUBKTNV-1" vertex="1">
          <mxGeometry x="1130" y="200.5" width="160" height="90" as="geometry">
            <mxRectangle x="80" y="300" width="80" height="50" as="alternateBounds" />
          </mxGeometry>
        </mxCell>
        <mxCell id="bm38EulNQy2IUuMWdBK0-64" value="&lt;font style=&quot;&quot;&gt;&lt;u&gt;Track-ID&lt;span style=&quot;white-space: pre;&quot;&gt;&#x9;&lt;/span&gt;&lt;span style=&quot;white-space: pre;&quot;&gt;&#x9;&lt;/span&gt;&lt;/u&gt;FK&lt;br&gt;&lt;u&gt;Branch-ID&lt;span style=&quot;white-space: pre;&quot;&gt;&#x9;&lt;/span&gt;&lt;span style=&quot;white-space: pre;&quot;&gt;&#x9;&lt;/span&gt;&lt;/u&gt;FK&lt;br&gt;&lt;/font&gt;" style="align=left;strokeColor=none;fillColor=none;spacingLeft=4;fontSize=12;verticalAlign=top;resizable=0;rotatable=0;part=1;html=1;fontColor=#143642;rounded=1;labelBackgroundColor=none;fontFamily=Times New Roman;fontStyle=1;strokeWidth=2;" parent="bm38EulNQy2IUuMWdBK0-63" vertex="1">
          <mxGeometry y="50" width="160" height="40" as="geometry" />
        </mxCell>
        <mxCell id="bm38EulNQy2IUuMWdBK0-65" style="edgeStyle=orthogonalEdgeStyle;rounded=1;orthogonalLoop=1;jettySize=auto;html=1;exitX=0.5;exitY=1;exitDx=0;exitDy=0;labelBackgroundColor=none;strokeColor=#A8201A;fontColor=default;fontFamily=Times New Roman;fontStyle=1;strokeWidth=2;" parent="bm38EulNQy2IUuMWdBK0-63" source="bm38EulNQy2IUuMWdBK0-64" target="bm38EulNQy2IUuMWdBK0-64" edge="1">
          <mxGeometry relative="1" as="geometry" />
        </mxCell>
        <mxCell id="bm38EulNQy2IUuMWdBK0-69" value="" style="curved=1;endArrow=classic;html=1;rounded=1;edgeStyle=orthogonalEdgeStyle;exitX=0.017;exitY=0.162;exitDx=0;exitDy=0;labelBackgroundColor=none;strokeColor=#6666FF;fontColor=default;fontFamily=Times New Roman;fontStyle=1;entryX=0;entryY=0.25;entryDx=0;entryDy=0;exitPerimeter=0;strokeWidth=2;" parent="WIyWlLk6GJQsqaUBKTNV-1" source="bm38EulNQy2IUuMWdBK0-21" target="8pZ8ATKJ1Jegab0F-tyK-20" edge="1">
          <mxGeometry width="50" height="50" relative="1" as="geometry">
            <mxPoint x="56" y="365" as="sourcePoint" />
            <mxPoint x="354" y="243" as="targetPoint" />
            <Array as="points">
              <mxPoint x="50" y="373" />
              <mxPoint x="50" y="290" />
              <mxPoint x="310" y="290" />
              <mxPoint x="310" y="98" />
            </Array>
          </mxGeometry>
        </mxCell>
        <mxCell id="bm38EulNQy2IUuMWdBK0-70" value="" style="curved=1;endArrow=classic;html=1;rounded=1;edgeStyle=orthogonalEdgeStyle;exitX=0;exitY=0.25;exitDx=0;exitDy=0;labelBackgroundColor=none;strokeColor=#FF0080;fontColor=default;fontFamily=Times New Roman;fontStyle=1;entryX=0.001;entryY=0.053;entryDx=0;entryDy=0;entryPerimeter=0;strokeWidth=2;" parent="WIyWlLk6GJQsqaUBKTNV-1" source="bm38EulNQy2IUuMWdBK0-24" target="8pZ8ATKJ1Jegab0F-tyK-21" edge="1">
          <mxGeometry width="50" height="50" relative="1" as="geometry">
            <mxPoint x="82" y="555" as="sourcePoint" />
            <mxPoint x="380" y="433" as="targetPoint" />
            <Array as="points">
              <mxPoint x="30" y="560" />
              <mxPoint x="30" y="480" />
              <mxPoint x="340" y="480" />
              <mxPoint x="340" y="100" />
            </Array>
          </mxGeometry>
        </mxCell>
        <mxCell id="bm38EulNQy2IUuMWdBK0-71" value="&lt;span&gt;&lt;font&gt;Exam Questions&lt;/font&gt;&lt;/span&gt;" style="swimlane;childLayout=stackLayout;horizontal=1;startSize=50;horizontalStack=0;rounded=1;fontSize=14;fontStyle=1;strokeWidth=2;resizeParent=0;resizeLast=1;shadow=0;dashed=0;align=center;arcSize=4;whiteSpace=wrap;html=1;strokeColor=#0F8B8D;fontColor=#143642;fillColor=#FFE599;labelBackgroundColor=none;fontFamily=Times New Roman;" parent="WIyWlLk6GJQsqaUBKTNV-1" vertex="1">
          <mxGeometry x="90" y="675" width="160" height="90" as="geometry">
            <mxRectangle x="80" y="300" width="80" height="50" as="alternateBounds" />
          </mxGeometry>
        </mxCell>
        <mxCell id="bm38EulNQy2IUuMWdBK0-76" value="&lt;font style=&quot;&quot;&gt;&lt;u&gt;Exam-ID&lt;span style=&quot;white-space: pre;&quot;&gt;&#x9;&lt;/span&gt;&lt;span style=&quot;white-space: pre;&quot;&gt;&#x9;&lt;/span&gt;&lt;/u&gt;FK&lt;br&gt;&lt;u&gt;Ques-ID&lt;span style=&quot;white-space: pre;&quot;&gt;&#x9;&lt;/span&gt;&lt;span style=&quot;white-space: pre;&quot;&gt;&#x9;&lt;/span&gt;&lt;span style=&quot;white-space: pre;&quot;&gt;&#x9;&lt;/span&gt;&lt;/u&gt;FK&lt;br&gt;&lt;/font&gt;" style="align=left;strokeColor=none;fillColor=none;spacingLeft=4;fontSize=12;verticalAlign=top;resizable=0;rotatable=0;part=1;html=1;fontColor=#143642;rounded=1;labelBackgroundColor=none;fontFamily=Times New Roman;fontStyle=1;strokeWidth=2;" parent="bm38EulNQy2IUuMWdBK0-71" vertex="1">
          <mxGeometry y="50" width="160" height="40" as="geometry" />
        </mxCell>
        <mxCell id="bm38EulNQy2IUuMWdBK0-72" value="&lt;font style=&quot;&quot;&gt;&lt;br&gt;&lt;/font&gt;" style="align=left;strokeColor=none;fillColor=none;spacingLeft=4;fontSize=12;verticalAlign=top;resizable=0;rotatable=0;part=1;html=1;fontColor=#143642;rounded=1;labelBackgroundColor=none;fontFamily=Times New Roman;fontStyle=1;strokeWidth=2;" parent="bm38EulNQy2IUuMWdBK0-71" vertex="1">
          <mxGeometry y="90" width="160" as="geometry" />
        </mxCell>
        <mxCell id="bm38EulNQy2IUuMWdBK0-73" style="edgeStyle=orthogonalEdgeStyle;rounded=1;orthogonalLoop=1;jettySize=auto;html=1;exitX=0.5;exitY=1;exitDx=0;exitDy=0;labelBackgroundColor=none;strokeColor=#A8201A;fontColor=default;fontFamily=Times New Roman;fontStyle=1;strokeWidth=2;" parent="bm38EulNQy2IUuMWdBK0-71" source="bm38EulNQy2IUuMWdBK0-72" target="bm38EulNQy2IUuMWdBK0-72" edge="1">
          <mxGeometry relative="1" as="geometry" />
        </mxCell>
        <mxCell id="bm38EulNQy2IUuMWdBK0-77" value="&lt;span&gt;&lt;font&gt;Student Enroll&lt;/font&gt;&lt;/span&gt;" style="swimlane;childLayout=stackLayout;horizontal=1;startSize=50;horizontalStack=0;rounded=1;fontSize=14;fontStyle=1;strokeWidth=2;resizeParent=0;resizeLast=1;shadow=0;dashed=0;align=center;arcSize=4;whiteSpace=wrap;html=1;strokeColor=#0F8B8D;fontColor=#143642;fillColor=#FFE599;labelBackgroundColor=none;fontFamily=Times New Roman;" parent="WIyWlLk6GJQsqaUBKTNV-1" vertex="1">
          <mxGeometry x="800" y="171" width="160" height="149" as="geometry">
            <mxRectangle x="80" y="300" width="80" height="50" as="alternateBounds" />
          </mxGeometry>
        </mxCell>
        <mxCell id="bm38EulNQy2IUuMWdBK0-78" value="&lt;font style=&quot;&quot;&gt;&lt;u style=&quot;&quot;&gt;St-SSN&lt;/u&gt;&lt;span style=&quot;white-space: pre;&quot;&gt;&#x9;&lt;/span&gt;&lt;span style=&quot;white-space: pre;&quot;&gt;&#x9;&lt;/span&gt;&lt;span style=&quot;white-space: pre;&quot;&gt;&#x9;&lt;/span&gt;FK&lt;br&gt;Branch-ID&lt;span style=&quot;white-space: pre;&quot;&gt;&#x9;&lt;/span&gt;&lt;span style=&quot;white-space: pre;&quot;&gt;&#x9;&lt;/span&gt;FK&lt;br&gt;&lt;span style=&quot;border-color: var(--border-color);&quot;&gt;Track-ID&lt;span style=&quot;white-space: pre;&quot;&gt;&#x9;&lt;/span&gt;&lt;span style=&quot;white-space: pre;&quot;&gt;&#x9;&lt;/span&gt;&lt;/span&gt;FK&lt;br&gt;&lt;span style=&quot;border-color: var(--border-color);&quot;&gt;Intake-Num&lt;/span&gt;&amp;nbsp;&lt;span style=&quot;white-space: pre;&quot;&gt;&#x9;&lt;/span&gt;&lt;span style=&quot;white-space: pre;&quot;&gt;&#x9;&lt;/span&gt;FK&lt;br&gt;&lt;u style=&quot;&quot;&gt;&lt;span style=&quot;border-color: var(--border-color);&quot;&gt;Start-Date&lt;/span&gt;&lt;br style=&quot;border-color: var(--border-color);&quot;&gt;&lt;/u&gt;&lt;span style=&quot;border-color: var(--border-color);&quot;&gt;End-Date&lt;/span&gt;&lt;br style=&quot;border-color: var(--border-color);&quot;&gt;&lt;/font&gt;" style="align=left;strokeColor=none;fillColor=none;spacingLeft=4;fontSize=12;verticalAlign=top;resizable=0;rotatable=0;part=1;html=1;fontColor=#143642;rounded=1;labelBackgroundColor=none;fontFamily=Times New Roman;fontStyle=1;strokeWidth=2;" parent="bm38EulNQy2IUuMWdBK0-77" vertex="1">
          <mxGeometry y="50" width="160" height="99" as="geometry" />
        </mxCell>
        <mxCell id="bm38EulNQy2IUuMWdBK0-79" style="edgeStyle=orthogonalEdgeStyle;rounded=1;orthogonalLoop=1;jettySize=auto;html=1;exitX=0.5;exitY=1;exitDx=0;exitDy=0;labelBackgroundColor=none;strokeColor=#A8201A;fontColor=default;fontFamily=Times New Roman;fontStyle=1;strokeWidth=2;" parent="bm38EulNQy2IUuMWdBK0-77" source="bm38EulNQy2IUuMWdBK0-78" target="bm38EulNQy2IUuMWdBK0-78" edge="1">
          <mxGeometry relative="1" as="geometry" />
        </mxCell>
        <mxCell id="bm38EulNQy2IUuMWdBK0-85" value="&lt;span&gt;&lt;font&gt;St_Courses&lt;/font&gt;&lt;/span&gt;" style="swimlane;childLayout=stackLayout;horizontal=1;startSize=50;horizontalStack=0;rounded=1;fontSize=14;fontStyle=1;strokeWidth=2;resizeParent=0;resizeLast=1;shadow=0;dashed=0;align=center;arcSize=4;whiteSpace=wrap;html=1;strokeColor=#0F8B8D;fontColor=#143642;fillColor=#FFE599;labelBackgroundColor=none;fontFamily=Times New Roman;" parent="WIyWlLk6GJQsqaUBKTNV-1" vertex="1">
          <mxGeometry x="800" y="490" width="160" height="100" as="geometry">
            <mxRectangle x="80" y="300" width="80" height="50" as="alternateBounds" />
          </mxGeometry>
        </mxCell>
        <mxCell id="bm38EulNQy2IUuMWdBK0-86" value="&lt;font style=&quot;&quot;&gt;&lt;span&gt;&lt;u&gt;Course-ID&lt;/u&gt;&lt;span style=&quot;text-decoration-line: underline; white-space: pre;&quot;&gt;&#x9;&lt;/span&gt;&lt;span style=&quot;text-decoration-line: underline; white-space: pre;&quot;&gt;&#x9;&lt;/span&gt;FK&lt;br&gt;&lt;u&gt;St-SSN&lt;/u&gt;&lt;span style=&quot;text-decoration-line: underline; white-space: pre;&quot;&gt;&#x9;&lt;/span&gt;&lt;span style=&quot;text-decoration-line: underline; white-space: pre;&quot;&gt;&#x9;&lt;/span&gt;&lt;span style=&quot;text-decoration-line: underline; white-space: pre;&quot;&gt;&#x9;&lt;/span&gt;FK&lt;br&gt;&lt;br&gt;&lt;/span&gt;&lt;/font&gt;" style="align=left;strokeColor=none;fillColor=none;spacingLeft=4;fontSize=12;verticalAlign=top;resizable=0;rotatable=0;part=1;html=1;fontColor=#143642;rounded=1;labelBackgroundColor=none;fontFamily=Times New Roman;fontStyle=1;strokeWidth=2;" parent="bm38EulNQy2IUuMWdBK0-85" vertex="1">
          <mxGeometry y="50" width="160" height="50" as="geometry" />
        </mxCell>
        <mxCell id="bm38EulNQy2IUuMWdBK0-87" style="edgeStyle=orthogonalEdgeStyle;rounded=1;orthogonalLoop=1;jettySize=auto;html=1;exitX=0.5;exitY=1;exitDx=0;exitDy=0;labelBackgroundColor=none;strokeColor=#A8201A;fontColor=default;fontFamily=Times New Roman;fontStyle=1;strokeWidth=2;" parent="bm38EulNQy2IUuMWdBK0-85" source="bm38EulNQy2IUuMWdBK0-86" target="bm38EulNQy2IUuMWdBK0-86" edge="1">
          <mxGeometry relative="1" as="geometry" />
        </mxCell>
        <mxCell id="bm38EulNQy2IUuMWdBK0-91" value="&lt;span&gt;&lt;font&gt;Student Answer&lt;/font&gt;&lt;/span&gt;" style="swimlane;childLayout=stackLayout;horizontal=1;startSize=50;horizontalStack=0;rounded=1;fontSize=14;fontStyle=1;strokeWidth=2;resizeParent=0;resizeLast=1;shadow=0;dashed=0;align=center;arcSize=4;whiteSpace=wrap;html=1;strokeColor=#0F8B8D;fontColor=#143642;fillColor=#FFE599;labelBackgroundColor=none;fontFamily=Times New Roman;" parent="WIyWlLk6GJQsqaUBKTNV-1" vertex="1">
          <mxGeometry x="410" y="315.5" width="160" height="139" as="geometry">
            <mxRectangle x="80" y="300" width="80" height="50" as="alternateBounds" />
          </mxGeometry>
        </mxCell>
        <mxCell id="bm38EulNQy2IUuMWdBK0-92" value="&lt;font style=&quot;&quot;&gt;&lt;u&gt;St-SSN&lt;/u&gt;&lt;span style=&quot;white-space: pre;&quot;&gt;&#x9;&lt;/span&gt;&lt;span style=&quot;white-space: pre;&quot;&gt;&#x9;&lt;/span&gt;&lt;span style=&quot;white-space: pre;&quot;&gt;&#x9;&lt;/span&gt;FK&lt;br&gt;&lt;u&gt;Exam-ID&lt;/u&gt;&lt;span style=&quot;white-space: pre;&quot;&gt;&#x9;&lt;/span&gt;&lt;span style=&quot;white-space: pre;&quot;&gt;&#x9;&lt;/span&gt;FK&lt;br&gt;&lt;u&gt;Ques-ID&lt;/u&gt;&lt;span style=&quot;white-space: pre;&quot;&gt;&#x9;&lt;/span&gt;&lt;span style=&quot;white-space: pre;&quot;&gt;&#x9;&lt;/span&gt;&lt;span style=&quot;white-space: pre;&quot;&gt;&#x9;&lt;/span&gt;FK&lt;br&gt;&lt;span style=&quot;border-color: var(--border-color);&quot;&gt;Grade&lt;br&gt;Answer&lt;br style=&quot;border-color: var(--border-color);&quot;&gt;&lt;/span&gt;&lt;/font&gt;" style="align=left;strokeColor=none;fillColor=none;spacingLeft=4;fontSize=12;verticalAlign=top;resizable=0;rotatable=0;part=1;html=1;fontColor=#143642;rounded=1;labelBackgroundColor=none;fontFamily=Times New Roman;fontStyle=1;strokeWidth=2;" parent="bm38EulNQy2IUuMWdBK0-91" vertex="1">
          <mxGeometry y="50" width="160" height="89" as="geometry" />
        </mxCell>
        <mxCell id="bm38EulNQy2IUuMWdBK0-94" style="edgeStyle=orthogonalEdgeStyle;rounded=1;orthogonalLoop=1;jettySize=auto;html=1;exitX=0.5;exitY=1;exitDx=0;exitDy=0;labelBackgroundColor=none;strokeColor=#A8201A;fontColor=default;fontFamily=Times New Roman;fontStyle=1;strokeWidth=2;" parent="bm38EulNQy2IUuMWdBK0-91" edge="1">
          <mxGeometry relative="1" as="geometry">
            <mxPoint x="80" y="90" as="sourcePoint" />
            <mxPoint x="80" y="90" as="targetPoint" />
          </mxGeometry>
        </mxCell>
        <mxCell id="L_ltyHtTYFYaEKhoPZbE-3" value="" style="curved=1;endArrow=classic;html=1;rounded=1;edgeStyle=orthogonalEdgeStyle;labelBackgroundColor=none;strokeColor=#A8201A;fontColor=default;fontFamily=Times New Roman;fontStyle=1;entryX=1;entryY=0.25;entryDx=0;entryDy=0;strokeWidth=2;exitX=1;exitY=0.25;exitDx=0;exitDy=0;" parent="WIyWlLk6GJQsqaUBKTNV-1" source="bm38EulNQy2IUuMWdBK0-5" target="8pZ8ATKJ1Jegab0F-tyK-32" edge="1">
          <mxGeometry width="50" height="50" relative="1" as="geometry">
            <mxPoint x="1350" y="320" as="sourcePoint" />
            <mxPoint x="789" y="154" as="targetPoint" />
            <Array as="points">
              <mxPoint x="1340" y="108" />
              <mxPoint x="1340" y="551" />
            </Array>
          </mxGeometry>
        </mxCell>
        <mxCell id="L_ltyHtTYFYaEKhoPZbE-4" value="" style="curved=1;endArrow=classic;html=1;rounded=1;edgeStyle=orthogonalEdgeStyle;exitX=1;exitY=0.25;exitDx=0;exitDy=0;labelBackgroundColor=none;strokeColor=#A8201A;fontColor=default;fontFamily=Times New Roman;fontStyle=1;entryX=1;entryY=0.5;entryDx=0;entryDy=0;strokeWidth=2;" parent="WIyWlLk6GJQsqaUBKTNV-1" source="bm38EulNQy2IUuMWdBK0-64" target="bm38EulNQy2IUuMWdBK0-5" edge="1">
          <mxGeometry width="50" height="50" relative="1" as="geometry">
            <mxPoint x="1301" y="559" as="sourcePoint" />
            <mxPoint x="1300" y="110" as="targetPoint" />
            <Array as="points">
              <mxPoint x="1310" y="260" />
              <mxPoint x="1310" y="125" />
            </Array>
          </mxGeometry>
        </mxCell>
        <mxCell id="L_ltyHtTYFYaEKhoPZbE-6" value="" style="curved=1;endArrow=classic;html=1;rounded=1;edgeStyle=orthogonalEdgeStyle;labelBackgroundColor=none;strokeColor=#A8201A;fontColor=default;fontFamily=Times New Roman;fontStyle=1;entryX=1;entryY=0.25;entryDx=0;entryDy=0;strokeWidth=2;exitX=0;exitY=0.75;exitDx=0;exitDy=0;" parent="WIyWlLk6GJQsqaUBKTNV-1" source="bm38EulNQy2IUuMWdBK0-64" target="bm38EulNQy2IUuMWdBK0-3" edge="1">
          <mxGeometry width="50" height="50" relative="1" as="geometry">
            <mxPoint x="990" y="110" as="sourcePoint" />
            <mxPoint x="990" y="560" as="targetPoint" />
            <Array as="points">
              <mxPoint x="1100" y="281" />
              <mxPoint x="1100" y="100" />
            </Array>
          </mxGeometry>
        </mxCell>
        <mxCell id="L_ltyHtTYFYaEKhoPZbE-8" value="" style="curved=1;endArrow=classic;html=1;rounded=1;edgeStyle=orthogonalEdgeStyle;labelBackgroundColor=none;strokeColor=#A8201A;fontColor=default;fontFamily=Times New Roman;fontStyle=1;entryX=1;entryY=0.25;entryDx=0;entryDy=0;strokeWidth=2;exitX=0;exitY=0.75;exitDx=0;exitDy=0;" parent="WIyWlLk6GJQsqaUBKTNV-1" source="bm38EulNQy2IUuMWdBK0-54" target="bm38EulNQy2IUuMWdBK0-3" edge="1">
          <mxGeometry width="50" height="50" relative="1" as="geometry">
            <mxPoint x="1130" y="319.93" as="sourcePoint" />
            <mxPoint x="960" y="138.93" as="targetPoint" />
            <Array as="points">
              <mxPoint x="1080" y="431" />
              <mxPoint x="1080" y="139" />
              <mxPoint x="960" y="139" />
            </Array>
          </mxGeometry>
        </mxCell>
        <mxCell id="L_ltyHtTYFYaEKhoPZbE-9" value="" style="curved=1;endArrow=classic;html=1;rounded=1;edgeStyle=orthogonalEdgeStyle;exitX=1;exitY=0.5;exitDx=0;exitDy=0;labelBackgroundColor=none;strokeColor=#A8201A;fontColor=default;fontFamily=Times New Roman;fontStyle=1;strokeWidth=2;entryX=1.008;entryY=0.663;entryDx=0;entryDy=0;entryPerimeter=0;" parent="WIyWlLk6GJQsqaUBKTNV-1" source="bm38EulNQy2IUuMWdBK0-1" target="bm38EulNQy2IUuMWdBK0-78" edge="1">
          <mxGeometry width="50" height="50" relative="1" as="geometry">
            <mxPoint x="1000" y="406" as="sourcePoint" />
            <mxPoint x="1000" y="270" as="targetPoint" />
            <Array as="points">
              <mxPoint x="990" y="426" />
              <mxPoint x="990" y="287" />
            </Array>
          </mxGeometry>
        </mxCell>
        <mxCell id="L_ltyHtTYFYaEKhoPZbE-10" value="" style="curved=1;endArrow=classic;html=1;rounded=1;edgeStyle=orthogonalEdgeStyle;labelBackgroundColor=none;strokeColor=#6666FF;fontColor=default;fontFamily=Times New Roman;fontStyle=1;entryX=0;entryY=0.5;entryDx=0;entryDy=0;strokeWidth=2;exitX=0.992;exitY=0.407;exitDx=0;exitDy=0;exitPerimeter=0;" parent="WIyWlLk6GJQsqaUBKTNV-1" source="bm38EulNQy2IUuMWdBK0-78" target="bm38EulNQy2IUuMWdBK0-5" edge="1">
          <mxGeometry width="50" height="50" relative="1" as="geometry">
            <mxPoint x="1100" y="331" as="sourcePoint" />
            <mxPoint x="930" y="150" as="targetPoint" />
            <Array as="points">
              <mxPoint x="1090" y="261" />
              <mxPoint x="1090" y="125" />
            </Array>
          </mxGeometry>
        </mxCell>
        <mxCell id="L_ltyHtTYFYaEKhoPZbE-11" value="" style="curved=1;endArrow=classic;html=1;rounded=1;edgeStyle=orthogonalEdgeStyle;exitX=0;exitY=0.25;exitDx=0;exitDy=0;labelBackgroundColor=none;strokeColor=#A8201A;fontColor=default;fontFamily=Times New Roman;fontStyle=1;entryX=0;entryY=0.25;entryDx=0;entryDy=0;strokeWidth=2;" parent="WIyWlLk6GJQsqaUBKTNV-1" source="bm38EulNQy2IUuMWdBK0-78" target="bm38EulNQy2IUuMWdBK0-3" edge="1">
          <mxGeometry width="50" height="50" relative="1" as="geometry">
            <mxPoint x="710" y="236" as="sourcePoint" />
            <mxPoint x="710" y="100" as="targetPoint" />
            <Array as="points">
              <mxPoint x="730" y="246" />
              <mxPoint x="730" y="100" />
            </Array>
          </mxGeometry>
        </mxCell>
        <mxCell id="L_ltyHtTYFYaEKhoPZbE-12" value="" style="curved=1;endArrow=classic;html=1;rounded=1;edgeStyle=orthogonalEdgeStyle;labelBackgroundColor=none;strokeColor=#6666FF;fontColor=default;fontFamily=Times New Roman;fontStyle=1;entryX=1;entryY=0.25;entryDx=0;entryDy=0;strokeWidth=2;exitX=-0.008;exitY=0.125;exitDx=0;exitDy=0;exitPerimeter=0;" parent="WIyWlLk6GJQsqaUBKTNV-1" source="bm38EulNQy2IUuMWdBK0-78" target="8pZ8ATKJ1Jegab0F-tyK-20" edge="1">
          <mxGeometry width="50" height="50" relative="1" as="geometry">
            <mxPoint x="750" y="241" as="sourcePoint" />
            <mxPoint x="580" y="60.00000000000001" as="targetPoint" />
            <Array as="points">
              <mxPoint x="799" y="241" />
              <mxPoint x="720" y="241" />
              <mxPoint x="720" y="98" />
            </Array>
          </mxGeometry>
        </mxCell>
        <mxCell id="L_ltyHtTYFYaEKhoPZbE-13" value="" style="curved=1;endArrow=classic;html=1;rounded=1;edgeStyle=orthogonalEdgeStyle;labelBackgroundColor=none;strokeColor=#A8201A;fontColor=default;fontFamily=Times New Roman;fontStyle=1;entryX=0.996;entryY=0.07;entryDx=0;entryDy=0;strokeWidth=2;exitX=0;exitY=0.5;exitDx=0;exitDy=0;entryPerimeter=0;" parent="WIyWlLk6GJQsqaUBKTNV-1" source="bm38EulNQy2IUuMWdBK0-86" target="8pZ8ATKJ1Jegab0F-tyK-21" edge="1">
          <mxGeometry width="50" height="50" relative="1" as="geometry">
            <mxPoint x="799" y="255" as="sourcePoint" />
            <mxPoint x="570" y="120" as="targetPoint" />
            <Array as="points">
              <mxPoint x="720" y="565" />
              <mxPoint x="720" y="103" />
            </Array>
          </mxGeometry>
        </mxCell>
        <mxCell id="L_ltyHtTYFYaEKhoPZbE-16" value="" style="curved=1;endArrow=classic;html=1;rounded=1;edgeStyle=orthogonalEdgeStyle;labelBackgroundColor=none;strokeColor=#A8201A;fontColor=default;fontFamily=Times New Roman;fontStyle=1;strokeWidth=2;entryX=1;entryY=0.25;entryDx=0;entryDy=0;exitX=1;exitY=0.25;exitDx=0;exitDy=0;" parent="WIyWlLk6GJQsqaUBKTNV-1" source="bm38EulNQy2IUuMWdBK0-86" target="bm38EulNQy2IUuMWdBK0-7" edge="1">
          <mxGeometry width="50" height="50" relative="1" as="geometry">
            <mxPoint x="1020" y="690" as="sourcePoint" />
            <mxPoint x="1021" y="515" as="targetPoint" />
            <Array as="points">
              <mxPoint x="980" y="553" />
              <mxPoint x="980" y="724" />
            </Array>
          </mxGeometry>
        </mxCell>
        <mxCell id="L_ltyHtTYFYaEKhoPZbE-18" value="" style="curved=1;endArrow=classic;html=1;rounded=1;edgeStyle=orthogonalEdgeStyle;exitX=1;exitY=0.25;exitDx=0;exitDy=0;labelBackgroundColor=none;strokeColor=#6666FF;fontColor=default;fontFamily=Times New Roman;fontStyle=1;entryX=1;entryY=0.25;entryDx=0;entryDy=0;strokeWidth=2;" parent="WIyWlLk6GJQsqaUBKTNV-1" source="bm38EulNQy2IUuMWdBK0-54" target="8pZ8ATKJ1Jegab0F-tyK-32" edge="1">
          <mxGeometry width="50" height="50" relative="1" as="geometry">
            <mxPoint x="1300" y="376" as="sourcePoint" />
            <mxPoint x="1300" y="240" as="targetPoint" />
            <Array as="points">
              <mxPoint x="1320" y="410" />
              <mxPoint x="1320" y="550" />
            </Array>
          </mxGeometry>
        </mxCell>
        <mxCell id="L_ltyHtTYFYaEKhoPZbE-19" value="" style="curved=1;endArrow=classic;html=1;rounded=1;edgeStyle=orthogonalEdgeStyle;exitX=1;exitY=0.25;exitDx=0;exitDy=0;labelBackgroundColor=none;strokeColor=#FF0080;fontColor=default;fontFamily=Times New Roman;fontStyle=1;entryX=1;entryY=0.25;entryDx=0;entryDy=0;strokeWidth=2;" parent="WIyWlLk6GJQsqaUBKTNV-1" source="bm38EulNQy2IUuMWdBK0-59" target="8pZ8ATKJ1Jegab0F-tyK-32" edge="1">
          <mxGeometry width="50" height="50" relative="1" as="geometry">
            <mxPoint x="1320" y="746" as="sourcePoint" />
            <mxPoint x="1320" y="610" as="targetPoint" />
            <Array as="points">
              <mxPoint x="1340" y="875" />
              <mxPoint x="1340" y="551" />
            </Array>
          </mxGeometry>
        </mxCell>
        <mxCell id="L_ltyHtTYFYaEKhoPZbE-22" value="" style="curved=1;endArrow=classic;html=1;rounded=1;edgeStyle=orthogonalEdgeStyle;labelBackgroundColor=none;strokeColor=#6666FF;fontColor=default;fontFamily=Times New Roman;fontStyle=1;entryX=1;entryY=0.25;entryDx=0;entryDy=0;strokeWidth=2;exitX=0;exitY=0.5;exitDx=0;exitDy=0;" parent="WIyWlLk6GJQsqaUBKTNV-1" source="bm38EulNQy2IUuMWdBK0-59" target="bm38EulNQy2IUuMWdBK0-7" edge="1">
          <mxGeometry width="50" height="50" relative="1" as="geometry">
            <mxPoint x="1090" y="901" as="sourcePoint" />
            <mxPoint x="920" y="720" as="targetPoint" />
            <Array as="points">
              <mxPoint x="1060" y="890" />
              <mxPoint x="1060" y="724" />
            </Array>
          </mxGeometry>
        </mxCell>
        <mxCell id="L_ltyHtTYFYaEKhoPZbE-23" value="" style="curved=1;endArrow=classic;html=1;rounded=1;edgeStyle=orthogonalEdgeStyle;exitX=1;exitY=0.75;exitDx=0;exitDy=0;labelBackgroundColor=none;strokeColor=#FF0080;fontColor=default;fontFamily=Times New Roman;fontStyle=1;strokeWidth=2;entryX=1;entryY=0.25;entryDx=0;entryDy=0;" parent="WIyWlLk6GJQsqaUBKTNV-1" source="bm38EulNQy2IUuMWdBK0-9" target="bm38EulNQy2IUuMWdBK0-7" edge="1">
          <mxGeometry width="50" height="50" relative="1" as="geometry">
            <mxPoint x="1000" y="876.0000000000001" as="sourcePoint" />
            <mxPoint x="1000" y="710.0000000000001" as="targetPoint" />
            <Array as="points">
              <mxPoint x="1000" y="905" />
              <mxPoint x="1000" y="724" />
            </Array>
          </mxGeometry>
        </mxCell>
        <mxCell id="L_ltyHtTYFYaEKhoPZbE-24" value="" style="curved=1;endArrow=classic;html=1;rounded=1;edgeStyle=orthogonalEdgeStyle;exitX=1.013;exitY=0.129;exitDx=0;exitDy=0;labelBackgroundColor=none;strokeColor=#FF0080;fontColor=default;fontFamily=Times New Roman;fontStyle=1;strokeWidth=2;entryX=1.004;entryY=0.091;entryDx=0;entryDy=0;exitPerimeter=0;entryPerimeter=0;" parent="WIyWlLk6GJQsqaUBKTNV-1" source="bm38EulNQy2IUuMWdBK0-92" target="8pZ8ATKJ1Jegab0F-tyK-21" edge="1">
          <mxGeometry width="50" height="50" relative="1" as="geometry">
            <mxPoint x="640" y="407" as="sourcePoint" />
            <mxPoint x="640" y="241" as="targetPoint" />
            <Array as="points">
              <mxPoint x="620" y="377" />
              <mxPoint x="620" y="106" />
            </Array>
          </mxGeometry>
        </mxCell>
        <mxCell id="L_ltyHtTYFYaEKhoPZbE-25" value="" style="curved=1;endArrow=classic;html=1;rounded=1;edgeStyle=orthogonalEdgeStyle;exitX=1.004;exitY=0.354;exitDx=0;exitDy=0;labelBackgroundColor=none;strokeColor=#A8201A;fontColor=default;fontFamily=Times New Roman;fontStyle=1;strokeWidth=2;exitPerimeter=0;entryX=1;entryY=0.5;entryDx=0;entryDy=0;" parent="WIyWlLk6GJQsqaUBKTNV-1" source="bm38EulNQy2IUuMWdBK0-92" target="bm38EulNQy2IUuMWdBK0-14" edge="1">
          <mxGeometry width="50" height="50" relative="1" as="geometry">
            <mxPoint x="640" y="658.9300000000001" as="sourcePoint" />
            <mxPoint x="720" y="640" as="targetPoint" />
            <Array as="points">
              <mxPoint x="600" y="397" />
              <mxPoint x="600" y="620" />
            </Array>
          </mxGeometry>
        </mxCell>
        <mxCell id="L_ltyHtTYFYaEKhoPZbE-26" value="" style="curved=1;endArrow=classic;html=1;rounded=1;edgeStyle=orthogonalEdgeStyle;labelBackgroundColor=none;strokeColor=#A8201A;fontColor=default;fontFamily=Times New Roman;fontStyle=1;strokeWidth=2;exitX=1;exitY=0.75;exitDx=0;exitDy=0;entryX=0;entryY=0.25;entryDx=0;entryDy=0;" parent="WIyWlLk6GJQsqaUBKTNV-1" source="bm38EulNQy2IUuMWdBK0-15" target="bm38EulNQy2IUuMWdBK0-7" edge="1">
          <mxGeometry width="50" height="50" relative="1" as="geometry">
            <mxPoint x="610" y="727" as="sourcePoint" />
            <mxPoint x="781" y="690" as="targetPoint" />
            <Array as="points">
              <mxPoint x="730" y="660" />
              <mxPoint x="730" y="724" />
            </Array>
          </mxGeometry>
        </mxCell>
        <mxCell id="L_ltyHtTYFYaEKhoPZbE-27" value="" style="curved=1;endArrow=classic;html=1;rounded=1;edgeStyle=orthogonalEdgeStyle;labelBackgroundColor=none;strokeColor=#6666FF;fontColor=default;fontFamily=Times New Roman;fontStyle=1;strokeWidth=2;exitX=1;exitY=0.75;exitDx=0;exitDy=0;entryX=0;entryY=0.25;entryDx=0;entryDy=0;" parent="WIyWlLk6GJQsqaUBKTNV-1" source="bm38EulNQy2IUuMWdBK0-11" target="bm38EulNQy2IUuMWdBK0-7" edge="1">
          <mxGeometry width="50" height="50" relative="1" as="geometry">
            <mxPoint x="570" y="822.97" as="sourcePoint" />
            <mxPoint x="800" y="886.97" as="targetPoint" />
            <Array as="points">
              <mxPoint x="750" y="898" />
              <mxPoint x="750" y="724" />
            </Array>
          </mxGeometry>
        </mxCell>
        <mxCell id="L_ltyHtTYFYaEKhoPZbE-28" value="" style="curved=1;endArrow=classic;html=1;rounded=1;edgeStyle=orthogonalEdgeStyle;exitX=1;exitY=0.5;exitDx=0;exitDy=0;labelBackgroundColor=none;strokeColor=#6666FF;fontColor=default;fontFamily=Times New Roman;fontStyle=1;strokeWidth=2;entryX=1;entryY=0.14;entryDx=0;entryDy=0;entryPerimeter=0;" parent="WIyWlLk6GJQsqaUBKTNV-1" source="bm38EulNQy2IUuMWdBK0-92" target="bm38EulNQy2IUuMWdBK0-11" edge="1">
          <mxGeometry width="50" height="50" relative="1" as="geometry">
            <mxPoint x="641" y="755.5" as="sourcePoint" />
            <mxPoint x="620" y="850" as="targetPoint" />
            <Array as="points">
              <mxPoint x="640" y="410" />
              <mxPoint x="640" y="844" />
            </Array>
          </mxGeometry>
        </mxCell>
        <mxCell id="L_ltyHtTYFYaEKhoPZbE-29" value="" style="curved=1;endArrow=classic;html=1;rounded=1;edgeStyle=orthogonalEdgeStyle;labelBackgroundColor=none;strokeColor=#A8201A;fontColor=default;fontFamily=Times New Roman;fontStyle=1;strokeWidth=2;exitX=1;exitY=0.25;exitDx=0;exitDy=0;entryX=0;entryY=0.25;entryDx=0;entryDy=0;" parent="WIyWlLk6GJQsqaUBKTNV-1" source="bm38EulNQy2IUuMWdBK0-76" target="bm38EulNQy2IUuMWdBK0-15" edge="1">
          <mxGeometry width="50" height="50" relative="1" as="geometry">
            <mxPoint x="300" y="757" as="sourcePoint" />
            <mxPoint x="471" y="720" as="targetPoint" />
            <Array as="points">
              <mxPoint x="340" y="735" />
              <mxPoint x="340" y="630" />
            </Array>
          </mxGeometry>
        </mxCell>
        <mxCell id="L_ltyHtTYFYaEKhoPZbE-30" value="" style="curved=1;endArrow=classic;html=1;rounded=1;edgeStyle=orthogonalEdgeStyle;labelBackgroundColor=none;strokeColor=#A8201A;fontColor=default;fontFamily=Times New Roman;fontStyle=1;strokeWidth=2;exitX=1;exitY=0.75;exitDx=0;exitDy=0;entryX=-0.004;entryY=0.167;entryDx=0;entryDy=0;entryPerimeter=0;" parent="WIyWlLk6GJQsqaUBKTNV-1" source="bm38EulNQy2IUuMWdBK0-76" target="bm38EulNQy2IUuMWdBK0-11" edge="1">
          <mxGeometry width="50" height="50" relative="1" as="geometry">
            <mxPoint x="240" y="845" as="sourcePoint" />
            <mxPoint x="400" y="740" as="targetPoint" />
            <Array as="points">
              <mxPoint x="320" y="755" />
              <mxPoint x="320" y="845" />
            </Array>
          </mxGeometry>
        </mxCell>
        <mxCell id="L_ltyHtTYFYaEKhoPZbE-31" value="" style="curved=1;endArrow=classic;html=1;rounded=1;edgeStyle=orthogonalEdgeStyle;labelBackgroundColor=none;strokeColor=#FF0080;fontColor=default;fontFamily=Times New Roman;fontStyle=1;strokeWidth=2;exitX=1;exitY=0.25;exitDx=0;exitDy=0;entryX=-0.029;entryY=0.152;entryDx=0;entryDy=0;entryPerimeter=0;" parent="WIyWlLk6GJQsqaUBKTNV-1" source="bm38EulNQy2IUuMWdBK0-27" target="bm38EulNQy2IUuMWdBK0-11" edge="1">
          <mxGeometry width="50" height="50" relative="1" as="geometry">
            <mxPoint x="270" y="880" as="sourcePoint" />
            <mxPoint x="429" y="970" as="targetPoint" />
            <Array as="points">
              <mxPoint x="250" y="880" />
              <mxPoint x="350" y="880" />
              <mxPoint x="350" y="844" />
            </Array>
          </mxGeometry>
        </mxCell>
      </root>
    </mxGraphModel>
  </diagram>
</mxfile>
